<svg width="135" height="50" viewBox="0 0 135 50" fill="none" xmlns="http://www.w3.org/2000/svg">
<path d="M13.7463 1.10865C13.8147 0.972974 13.9041 0.848908 14.011 0.741C14.1648 0.706697 14.3224 0.692486 14.4798 0.698721C15.0312 0.70975 15.5827 0.698721 16.1342 0.698721H40.4412C40.8088 0.698721 41.1765 0.698721 41.5441 0.698721C41.7012 0.690981 41.8586 0.702712 42.0129 0.733647C42.1842 0.925738 42.3255 1.14265 42.432 1.37703C43.3107 2.89909 44.1906 4.42115 45.0717 5.94321C45.2426 6.19657 45.3868 6.46702 45.5018 6.75019C45.3064 6.89894 45.0985 7.03056 44.8805 7.14357C44.6839 7.26988 44.4781 7.3811 44.2647 7.47629C44.133 7.29676 44.0162 7.1068 43.9154 6.90828C43.057 5.40828 42.182 3.91931 41.3309 2.41563C41.2721 2.33107 41.2206 2.21526 41.1048 2.2024C40.7993 2.17385 40.4921 2.16771 40.1857 2.18401H16.511C16.1201 2.18401 15.7298 2.18401 15.3401 2.18401C15.1835 2.17598 15.0265 2.18834 14.8732 2.22078C14.7654 2.32802 14.676 2.45222 14.6085 2.58843C14.3713 3.02225 14.1176 3.44872 13.8732 3.87519C10.3192 10.0222 6.76899 16.1711 3.22243 22.3219C2.76471 23.0976 2.33456 23.8881 1.86581 24.6583C1.80212 24.7569 1.75262 24.8639 1.71875 24.9763C1.7472 25.1218 1.80608 25.2596 1.89154 25.3807C2.16544 25.8292 2.42096 26.287 2.68382 26.741C6.57843 33.4812 10.4736 40.2281 14.3695 46.9818C14.5368 47.2483 14.6471 47.5572 14.875 47.7814C15.1933 47.8207 15.5145 47.8305 15.8346 47.8108H40.193C40.5143 47.8305 40.8367 47.8207 41.1562 47.7814C41.3189 47.6032 41.4523 47.4003 41.5515 47.1803C42.3015 45.8813 43.0515 44.5817 43.8015 43.2814C43.9144 43.0546 44.048 42.8386 44.2004 42.6362C44.4065 42.7198 44.6046 42.8219 44.7923 42.9414C45.0237 43.0569 45.2414 43.1981 45.4412 43.3623C45.3304 43.6178 45.1989 43.8637 45.0478 44.0976C44.1899 45.5817 43.3321 47.0633 42.4743 48.5425C42.3254 48.7851 42.2279 49.0737 42.011 49.2667C41.8567 49.2968 41.6994 49.3085 41.5423 49.3017C40.9669 49.2906 40.3915 49.3017 39.818 49.3017H16.2022C15.6287 49.3017 15.0533 49.3017 14.4798 49.3017C14.3226 49.3088 14.1652 49.2964 14.011 49.2649C13.8365 49.0539 13.6895 48.8217 13.5735 48.5737C9.28431 41.1534 4.99939 33.7312 0.71875 26.3072C0.534926 25.9836 0.351103 25.6583 0.148897 25.3384C0.0746147 25.2301 0.0238901 25.1073 0 24.9781C0.0348965 24.867 0.085004 24.7612 0.148897 24.6638C0.516544 24.0627 0.851103 23.4377 1.21324 22.8256C5.12132 16.0572 9.03125 9.28757 12.943 2.51674C13.2077 2.04431 13.4908 1.58475 13.7463 1.10865Z" fill="#5BB2D7"/>
<path fill-rule="evenodd" clip-rule="evenodd" d="M16.6803 13.4284C16.4673 13.6558 16.2002 14.0867 16.0868 14.386C15.7728 15.2143 15.6471 18.2942 15.8772 19.5168C16.0776 20.5817 16.0706 20.6159 15.3438 22.0904C14.9388 22.9122 14.496 24.1246 14.3596 24.7845C14.2234 25.4444 13.8449 26.4576 13.5184 27.0361C11.9359 29.84 13.0971 33.2788 16.107 34.7023C16.68 34.9733 17.5917 35.5852 18.1331 36.0621C20.2445 37.9214 22.9724 38.8477 25.918 38.7054C28.7189 38.5703 30.9272 37.6727 33.0445 35.8089C34.6733 34.3753 36.2627 31.4685 36.582 29.3398C36.7075 28.5023 36.7417 28.4655 38.1513 27.6464C39.8346 26.6685 41.8248 24.8746 42.4947 23.7314C43.082 22.7293 43.6581 20.9098 43.6581 20.0575C43.6581 18.9769 43.1467 18.1589 42.2129 17.7459C40.5232 16.9985 36.9035 17.6689 34.7583 19.1268L34.041 19.6141L33.1353 18.7999C31.9313 17.7174 30.4129 16.8148 28.9522 16.3135C27.4164 15.7865 24.3381 15.6292 22.9428 16.0062L21.9884 16.2643L20.9208 15.1701C20.3335 14.5685 19.5303 13.8372 19.136 13.5455C18.2302 12.8749 17.2428 12.8279 16.6803 13.4284ZM16.7978 14.9909C16.584 15.5398 16.8002 17.6499 17.1654 18.5799L17.3656 19.0898L18.4066 18.2418C18.9792 17.7755 19.6423 17.3053 19.8802 17.197C20.118 17.0885 20.3125 16.9325 20.3125 16.8499C20.3125 16.5856 17.6594 14.4911 17.3208 14.4882C17.1336 14.4865 16.9107 14.701 16.7978 14.9909ZM24.3566 16.4578L23.5294 16.5255L22.4588 18.6087C21.87 19.7545 20.8228 21.4369 20.1314 22.3473L18.8746 24.0029L19.9546 24.2154C20.6118 24.3446 21.4041 24.6766 21.9787 25.0632C23.0177 25.7624 23.1535 25.8141 23.0171 25.4587C22.8368 24.9889 23.2285 22.2801 23.6324 21.2043C24.337 19.3271 26.2346 17.6771 28.0892 17.3293C28.4627 17.2591 28.7684 17.1365 28.7684 17.0567C28.7684 16.7229 25.8915 16.3325 24.3566 16.4578ZM38.1434 20.0646C37.036 20.4578 36.211 20.8442 35.5941 21.2584C35.3881 21.3968 35.4425 21.6883 35.896 22.8736C36.2002 23.669 36.5068 24.6714 36.5772 25.1012C36.6474 25.531 36.7614 25.8825 36.8302 25.8825C36.8989 25.8825 37.2846 25.6646 37.6871 25.3983C40.0502 23.8354 41.5794 21.2422 40.8208 20.0845C40.4403 19.5036 39.7373 19.4985 38.1434 20.0646ZM17.4632 20.7905C16.5529 21.7008 16.1384 23.4928 16.8384 23.4928C17.2506 23.4928 18.2351 22.2328 18.4653 21.4108C18.8432 20.0608 18.4416 19.8122 17.4632 20.7905ZM17.4735 21.0865C17.4167 21.1784 17.4195 21.406 17.48 21.592C17.5688 21.8652 17.5531 21.8784 17.3993 21.6608C17.2432 21.4402 17.1721 21.4872 17.0074 21.9205C16.861 22.3054 16.8616 22.5041 17.0096 22.6496C17.2884 22.9233 18.1066 21.9678 18.1066 21.3685C18.1066 20.9262 17.6879 20.7396 17.4735 21.0865ZM25.5802 22.5981C25.0007 22.9348 24.6726 23.974 24.9143 24.7065C25.4245 26.2523 27.7066 26.2339 28.2195 24.6801C28.4741 23.9084 28.225 23.0966 27.5993 22.6582C27.1535 22.3461 26.0693 22.3137 25.5802 22.5981ZM25.7243 23.5757C25.5504 23.8411 25.4783 24.1812 25.5487 24.403C25.8232 25.2681 27.1355 25.3371 27.514 24.5062C28.0114 23.4144 26.3844 22.5683 25.7243 23.5757ZM15.1816 24.1584C14.8717 25.2747 14.9103 25.3841 15.4871 25.0233C15.7653 24.8492 16.0178 24.6913 16.0485 24.672C16.0792 24.6529 15.9414 24.369 15.7419 24.0413L15.3796 23.4453L15.1816 24.1584ZM26.1285 23.6203C25.9215 23.8273 26.0026 24.0442 26.2868 24.0442C26.4384 24.0442 26.5625 23.9665 26.5625 23.8712C26.5625 23.6394 26.2754 23.4735 26.1285 23.6203ZM17.0037 24.9885L16.3603 25.1861L17.0015 25.3964C17.6949 25.6238 17.9129 26.0948 17.5353 26.5497C17.2191 26.9308 15.2642 27.9045 14.8154 27.9045C14.6039 27.9045 14.3996 27.7337 14.321 27.4909C14.1971 27.1086 14.1618 27.133 13.8539 27.8126C12.9441 29.8207 14.0167 31.7681 16.0294 31.763C16.8796 31.7608 18.4055 31.0689 19.0118 30.4104C19.4491 29.9356 19.9449 29.7661 19.9449 30.0913C19.9449 30.342 18.7346 31.3507 17.9594 31.7462C16.8125 32.3312 15.7064 32.4102 14.7267 31.9768C14.2603 31.7705 13.8787 31.6707 13.8787 31.7552C13.8787 31.8398 14.2485 32.3201 14.7006 32.8229C17.0956 35.4869 21.5202 35.1082 23.2427 32.0922C25.1171 28.8102 22.8649 25.0242 18.9338 24.8485C18.2261 24.8168 17.3575 24.8799 17.0037 24.9885ZM26.7463 27.354C26.2914 27.4319 25.5813 27.5871 25.1682 27.699L24.4173 27.9023L24.5026 29.3769C24.5822 30.7501 24.5478 30.9334 24.0037 32.0387C23.0557 33.9643 21.0862 35.251 19.0697 35.2624L18.1985 35.2674L18.8419 35.8075C20.5717 37.2598 22.952 38.0696 25.473 38.0635C28.9857 38.0552 32.2642 36.3177 34.1664 33.4565C35.3075 31.74 35.3618 31.4196 34.6785 30.4264C32.948 27.9111 30.05 26.7887 26.7463 27.354Z" fill="#07AB04"/>
<path d="M56.5073 18.8605V25.5517C56.5073 26.3924 56.3578 27.173 56.0588 27.8936C55.7573 28.6142 55.3407 29.2404 54.8088 29.7723C54.277 30.3041 53.6507 30.7196 52.9301 31.0186C52.2096 31.3201 51.4289 31.4708 50.5882 31.4708C49.6103 31.4708 48.7868 31.2992 48.1176 30.9561C47.4485 30.613 46.9081 30.2269 46.4963 29.798C45.9988 29.3176 45.6042 28.76 45.3125 28.1252L47.3713 26.8385C47.5429 27.2674 47.7745 27.6363 48.0662 27.9451C48.3064 28.2196 48.6324 28.4684 49.0441 28.6914C49.4559 28.9144 49.9706 29.026 50.5882 29.026C51.0686 29.026 51.5196 28.9353 51.9412 28.7539C52.3603 28.575 52.7292 28.3262 53.0478 28.0076C53.364 27.6914 53.6127 27.3225 53.7941 26.901C53.973 26.4818 54.0625 26.0321 54.0625 25.5517V23.2355H49.4301V20.9193H54.0625V18.8605C54.0625 18.3801 53.973 17.9292 53.7941 17.5076C53.6127 17.0885 53.364 16.7196 53.0478 16.401C52.7292 16.0848 52.3603 15.836 51.9412 15.6546C51.5196 15.4757 51.0686 15.3863 50.5882 15.3863C49.9706 15.3863 49.4559 15.5015 49.0441 15.7318C48.6324 15.9647 48.3064 16.2184 48.0662 16.4929C47.7745 16.8017 47.5429 17.162 47.3713 17.5738L45.3125 16.287C45.6042 15.6693 45.9988 15.1117 46.4963 14.6142C46.9081 14.2024 47.4485 13.8201 48.1176 13.4671C48.7868 13.1167 49.6103 12.9414 50.5882 12.9414C51.4289 12.9414 52.2096 13.0909 52.9301 13.3899C53.6507 13.6914 54.277 14.1081 54.8088 14.6399C55.3407 15.1718 55.7573 15.798 56.0588 16.5186C56.3578 17.2392 56.5073 18.0198 56.5073 18.8605ZM62.6838 18.6032V23.7502H64.8713L67.4448 18.6032H69.8897L66.6728 24.9083L69.8897 31.2135H67.4448L64.8713 26.0664H62.6838V31.2135H60.3676V20.9193H58.5662V18.6032H62.6838ZM80.6985 23.1068V26.7098C80.6985 27.4132 80.5821 28.0566 80.3493 28.6399C80.1189 29.2233 79.7941 29.7245 79.375 30.1436C78.9534 30.5652 78.451 30.8912 77.8676 31.1216C77.2843 31.3544 76.6409 31.4708 75.9375 31.4708C75.2341 31.4708 74.5907 31.3544 74.0073 31.1216C73.424 30.8912 72.9228 30.5652 72.5037 30.1436C72.0821 29.7245 71.7549 29.2233 71.5221 28.6399C71.2917 28.0566 71.1765 27.4132 71.1765 26.7098V23.1068C71.1765 22.4034 71.2917 21.76 71.5221 21.1767C71.7549 20.5934 72.0821 20.0909 72.5037 19.6693C72.9228 19.2502 73.424 18.9255 74.0073 18.6951C74.5907 18.4622 75.2341 18.3458 75.9375 18.3458C76.6409 18.3458 77.2843 18.4622 77.8676 18.6951C78.451 18.9255 78.9534 19.2502 79.375 19.6693C79.7941 20.0909 80.1189 20.5934 80.3493 21.1767C80.5821 21.76 80.6985 22.4034 80.6985 23.1068ZM73.4926 23.1068V26.7098C73.4926 27.4304 73.7206 28.0174 74.1765 28.4708C74.6299 28.9267 75.2169 29.1546 75.9375 29.1546C76.6581 29.1546 77.2463 28.9267 77.7022 28.4708C78.1556 28.0174 78.3823 27.4304 78.3823 26.7098V23.1068C78.3823 22.3863 78.1556 21.798 77.7022 21.3421C77.2463 20.8887 76.6581 20.662 75.9375 20.662C75.2169 20.662 74.6299 20.8887 74.1765 21.3421C73.7206 21.798 73.4926 22.3863 73.4926 23.1068ZM97.4265 31.2135H95.1103V20.9193H90.4779V31.2135H88.1617V20.9193H86.3603V18.6032H97.4265V31.2135ZM109.265 31.2135H103.86C102.694 31.2135 101.759 30.8617 101.055 30.1583C100.352 29.4549 100 28.5198 100 27.3532C100 26.1865 100.352 25.2515 101.055 24.548C101.759 23.8446 102.694 23.4929 103.86 23.4929H106.949V22.7208C106.949 22.2061 106.777 21.7772 106.434 21.4341C106.091 21.0909 105.662 20.9193 105.147 20.9193H101.801V18.6032H105.147C106.382 18.6032 107.377 18.9806 108.132 19.7355C108.887 20.4904 109.265 21.4855 109.265 22.7208V31.2135ZM106.949 25.8091H103.86C103.414 25.8091 103.045 25.9549 102.754 26.2466C102.462 26.5382 102.316 26.9071 102.316 27.3532C102.316 27.7992 102.462 28.1681 102.754 28.4598C103.045 28.7515 103.414 28.8973 103.86 28.8973H106.949V25.8091ZM111.324 18.6032H117.757C118.392 18.6032 118.98 18.7098 119.522 18.923C120.061 19.1387 120.524 19.439 120.912 19.8238C121.297 20.211 121.596 20.6742 121.809 21.2135C122.024 21.7551 122.132 22.3434 122.132 22.9782V26.8385C122.132 27.4904 122.024 28.0823 121.809 28.6142C121.596 29.1461 121.297 29.6044 120.912 29.9892C120.524 30.3765 120.061 30.6767 119.522 30.8899C118.98 31.1056 118.392 31.2135 117.757 31.2135H115.441V36.6179H113.125V20.9193H111.324V18.6032ZM119.816 26.8385V22.9782C119.816 22.3948 119.619 21.9059 119.224 21.5113C118.83 21.1167 118.341 20.9193 117.757 20.9193H115.441V28.8973H117.757C118.341 28.8973 118.83 28.7 119.224 28.3054C119.619 27.9108 119.816 27.4218 119.816 26.8385ZM127.794 18.6032V23.7502H129.982L132.555 18.6032H135L131.783 24.9083L135 31.2135H132.555L129.982 26.0664H127.794V31.2135H125.478V20.9193H123.676V18.6032H127.794Z" fill="black"/>
</svg>
